<?xml version="1.0" standalone="no"?>
<!DOCTYPE svg PUBLIC "-//W3C//DTD SVG 20010904//EN"
 "http://www.w3.org/TR/2001/REC-SVG-20010904/DTD/svg10.dtd">
<svg version="1.0" xmlns="http://www.w3.org/2000/svg"
 width="1024.000000pt" height="1024.000000pt" viewBox="0 0 1024.000000 1024.000000"
 preserveAspectRatio="xMidYMid meet">
<metadata>
Created by potrace 1.14, written by Peter Selinger 2001-2017
</metadata>
<g transform="translate(0.000000,1024.000000) scale(0.100000,-0.100000)"
fill="#000000" stroke="none">
<path d="M4838 9145 c-671 -64 -1277 -279 -1827 -647 -595 -399 -1070 -942
-1377 -1573 -201 -415 -307 -783 -360 -1251 -18 -167 -27 -681 -13 -839 66
-786 352 -1527 819 -2125 392 -502 825 -857 1390 -1140 188 -94 252 -120 550
-221 156 -53 461 -121 675 -150 43 -5 74 -15 82 -25 7 -10 29 -16 61 -17 27
-1 48 -5 45 -9 -2 -5 0 -8 6 -8 5 0 12 8 15 18 5 14 16 16 71 14 36 -2 65 -7
65 -10 0 -8 47 -30 70 -33 42 -5 60 2 60 21 0 18 7 20 70 20 65 0 70 -2 70
-21 0 -15 5 -19 15 -15 8 3 15 1 15 -4 0 -11 59 -14 84 -4 21 8 20 32 -1 36
-10 3 20 8 66 12 66 7 85 5 93 -5 6 -8 11 -10 14 -4 2 6 24 9 49 7 25 -2 45 0
45 6 0 5 -12 8 -27 6 -28 -4 -28 -4 -3 5 40 14 70 13 70 -4 0 -9 6 -12 16 -8
11 4 12 8 4 13 -7 4 3 10 25 14 20 4 44 10 52 13 12 5 14 3 8 -8 -8 -12 -6
-12 8 0 22 18 142 40 187 35 28 -3 31 -2 15 5 -19 9 -18 10 5 11 46 3 64 7
210 45 472 123 976 359 1330 624 723 540 1207 1250 1464 2147 212 740 206
1574 -17 2289 -298 957 -909 1736 -1771 2257 -194 118 -522 265 -766 344 -215
70 -495 132 -770 169 -163 23 -696 29 -892 10z m603 -475 c205 -10 400 -32
440 -49 13 -6 62 -17 107 -26 113 -22 184 -48 263 -95 77 -45 180 -153 196
-202 l10 -34 -81 8 c-45 3 -97 6 -116 5 -30 -2 -39 4 -63 35 -31 41 -111 97
-192 134 -79 36 -221 64 -362 71 -74 4 -120 10 -116 15 3 6 24 19 47 29 l41
19 -50 0 c-27 0 -88 4 -135 10 -47 5 -136 10 -198 12 -63 2 -116 6 -118 10 -2
3 -94 4 -204 1 -176 -5 -200 -4 -200 9 0 21 11 24 121 37 180 21 343 24 610
11z m-783 -57 c3 -10 -16 -13 -70 -14 -40 0 -82 -2 -93 -4 -11 -2 -36 -6 -57
-9 -20 -3 -45 -9 -55 -12 -15 -5 -16 -4 -2 5 13 9 108 32 179 44 44 8 93 2 98
-10z m297 -42 c13 -21 -102 -49 -247 -60 -170 -13 -308 -14 -308 -3 0 13 15
29 40 43 18 10 79 16 210 20 102 3 211 6 242 7 31 1 59 -2 63 -7z m373 -18
c39 -9 72 -20 72 -25 0 -4 -26 -15 -57 -24 -48 -14 -85 -16 -222 -11 -90 4
-166 9 -169 11 -11 12 23 37 67 50 65 20 221 20 309 -1z m-978 -22 c0 -5 -28
-28 -62 -50 -62 -41 -64 -41 -158 -41 -73 0 -122 -7 -209 -30 -63 -16 -117
-28 -119 -25 -3 2 1 7 9 9 8 3 61 23 119 44 126 47 221 78 275 91 53 12 145
13 145 2z m2050 -39 c63 -22 135 -49 160 -62 72 -36 136 -96 164 -152 28 -56
35 -98 14 -80 -7 5 -50 20 -95 32 l-81 23 -143 138 c-79 77 -141 139 -138 139
3 0 56 -17 119 -38z m-1600 -20 c0 -18 -202 -62 -415 -89 -122 -16 -147 5 -69
60 38 27 44 28 75 17 27 -10 55 -9 139 3 115 16 270 22 270 9z m955 -31 c97
-25 225 -87 294 -141 58 -46 63 -60 24 -61 -16 0 -62 -10 -103 -22 l-75 -22
-55 33 c-119 71 -329 113 -562 113 -115 0 -136 2 -131 15 7 18 132 79 203 99
78 21 297 14 405 -14z m-642 8 l38 -10 -48 -26 c-42 -22 -67 -27 -188 -34 -77
-5 -146 -10 -154 -12 -54 -9 25 63 89 81 47 14 216 14 263 1z m-947 -59 c19
-16 8 -35 -38 -65 l-40 -27 -99 13 c-93 12 -98 14 -82 31 8 10 39 29 67 44 44
22 59 25 115 20 35 -3 69 -10 77 -16z m504 -5 c0 -24 -48 -41 -200 -70 -80
-15 -177 -38 -216 -51 -60 -19 -76 -21 -98 -11 -29 14 -30 16 -13 38 24 31 64
48 122 54 65 6 218 31 275 44 61 15 130 13 130 -4z m2234 -116 c54 -33 119
-104 143 -157 12 -29 23 -54 23 -56 0 -1 -53 23 -117 55 -90 45 -121 65 -136
91 -11 18 -37 60 -59 94 -21 33 -38 64 -38 68 0 7 105 -48 184 -95z m-3070 72
c3 -5 -46 -47 -109 -95 -102 -76 -119 -86 -157 -86 -44 0 -139 -13 -193 -25
-20 -4 0 12 58 48 126 79 223 126 302 147 82 22 92 23 99 11z m1121 -20 c3 -5
-3 -12 -14 -16 -10 -3 -47 -24 -80 -45 -47 -31 -72 -40 -104 -40 -23 0 -80 -5
-126 -10 -46 -6 -86 -8 -89 -5 -8 8 58 74 91 92 16 8 47 18 70 23 59 11 245
12 252 1z m-448 -55 c-16 -13 -34 -33 -40 -46 -10 -19 -33 -29 -122 -52 -124
-31 -315 -93 -359 -115 -26 -14 -30 -13 -49 6 l-21 20 56 56 c47 47 60 55 94
55 21 1 122 23 224 50 102 26 199 49 215 49 l30 0 -28 -23z m-603 -1 c94 -27
95 -32 28 -98 l-58 -57 -94 23 -93 23 44 35 c64 50 113 88 117 89 2 0 28 -7
56 -15z m1591 0 c109 -16 220 -47 248 -69 17 -13 10 -18 -78 -60 l-96 -45 -77
25 c-64 22 -101 27 -227 31 -139 5 -367 -8 -425 -23 l-25 -7 25 28 c61 66 151
113 250 128 66 11 315 5 405 -8z m-790 -113 c-6 -5 -39 -36 -75 -69 -66 -60
-66 -60 -142 -66 -42 -4 -95 -14 -118 -23 -22 -9 -43 -14 -47 -11 -9 9 34 73
71 105 31 27 102 51 196 65 49 8 124 7 115 -1z m2486 -74 c46 -33 119 -96 163
-140 l79 -78 -48 -44 -48 -43 -92 64 -93 64 -4 62 c-2 39 -14 84 -30 120 -15
31 -23 57 -19 57 4 0 45 -28 92 -62z m-3486 -7 c28 -16 58 -37 67 -48 17 -18
15 -21 -43 -82 l-60 -63 -84 43 c-72 36 -83 45 -73 58 20 27 122 120 133 121
6 0 33 -13 60 -29z m-208 13 c21 -6 21 -7 -10 -32 -18 -14 -66 -58 -107 -98
l-75 -73 -127 6 c-71 3 -128 9 -128 12 1 6 53 46 164 125 58 41 78 50 130 56
83 10 127 11 153 4z m782 -26 c-17 -18 -38 -46 -45 -63 -11 -26 -23 -34 -86
-54 -91 -29 -267 -100 -346 -140 -60 -30 -60 -30 -78 -10 -17 19 -17 21 1 55
10 19 35 50 55 68 34 31 65 42 465 171 6 2 23 4 38 4 l29 1 -33 -32z m1155 9
l40 -18 -33 -22 c-34 -23 -138 -100 -158 -117 -8 -6 -49 -6 -120 1 -59 6 -161
8 -227 4 -112 -6 -330 -36 -372 -51 -22 -8 -25 -13 60 89 76 91 108 104 311
131 17 2 127 3 245 2 179 -2 222 -5 254 -19z m1226 -21 c139 -28 275 -73 373
-122 236 -119 400 -250 630 -502 26 -28 53 -52 58 -52 6 0 33 12 60 28 l50 27
20 -25 c38 -48 139 -201 139 -211 0 -6 -4 -8 -8 -5 -4 2 -14 1 -22 -4 -17 -11
-41 6 -34 23 2 7 -24 39 -58 72 l-62 60 55 -60 c52 -59 67 -95 53 -134 -3 -11
-10 -6 -24 15 -10 16 -37 49 -60 74 -40 44 -40 44 10 -26 27 -40 50 -74 50
-78 0 -12 71 -116 80 -116 5 0 31 9 59 19 46 19 50 19 64 3 34 -38 133 -262
116 -262 -5 0 -9 6 -9 13 0 23 -76 171 -96 187 -18 15 -18 14 -1 -10 28 -41
66 -116 71 -141 2 -13 7 -33 11 -44 6 -16 3 -16 -13 5 -11 13 -19 27 -16 31 6
11 -24 77 -56 121 -17 23 -30 36 -30 31 0 -6 9 -22 20 -35 10 -14 17 -28 13
-31 -3 -3 6 -20 21 -37 14 -17 26 -37 26 -43 -1 -15 -44 36 -76 91 -30 49 -42
56 -19 11 23 -43 11 -49 -14 -8 -12 19 -21 30 -21 25 0 -11 55 -108 93 -164
16 -24 27 -46 24 -48 -3 -3 -24 22 -46 55 -23 33 -46 63 -51 66 -6 4 0 -9 12
-28 13 -18 43 -75 68 -125 42 -86 47 -92 76 -92 17 0 45 5 63 11 18 6 34 9 37
6 3 -3 23 -56 45 -119 39 -116 52 -178 20 -98 -34 84 -60 140 -65 140 -6 0 27
-89 45 -122 6 -10 8 -31 6 -46 -4 -27 -4 -27 -6 3 -1 17 -6 37 -11 45 -7 10
-8 0 -5 -35 l4 -50 -9 44 c-5 24 -7 47 -5 51 6 9 -35 104 -41 97 -3 -2 2 -24
10 -48 15 -43 13 -64 -5 -53 -5 3 -7 14 -4 25 4 10 2 19 -4 19 -5 0 -12 13
-16 30 -4 16 -11 32 -16 35 -12 8 -11 0 6 -65 22 -83 17 -93 -9 -20 -13 36
-27 74 -32 84 -6 15 -4 17 7 11 8 -5 11 -5 6 1 -5 5 -12 9 -15 8 -4 0 -15 9
-25 20 -14 17 -13 12 4 -29 35 -80 80 -241 116 -405 83 -388 110 -683 93
-1016 -13 -252 -15 -272 -70 -590 -38 -223 -152 -569 -268 -814 -71 -150 -231
-426 -262 -450 -3 -3 -33 -41 -67 -85 -241 -318 -714 -620 -1113 -711 -54 -13
-121 -18 -235 -18 -138 0 -175 4 -270 26 -101 24 -310 96 -302 104 2 2 26 -3
53 -11 27 -8 107 -26 177 -40 373 -75 706 -11 1031 199 113 73 192 140 329
280 64 66 117 116 117 112 0 -30 -227 -283 -330 -369 l-45 -37 70 41 c39 23
122 84 185 135 328 265 496 493 704 956 72 161 162 458 210 698 96 478 96 977
0 1430 -200 949 -759 1703 -1423 1920 -165 54 -239 64 -441 65 -199 0 -298
-15 -468 -72 -617 -203 -1169 -843 -1459 -1688 -83 -243 -153 -564 -174 -800
-10 -106 -31 -501 -29 -548 0 -15 -5 -37 -11 -49 -6 -11 -7 -18 -2 -15 4 3 8
-28 7 -69 0 -78 11 -198 22 -224 4 -8 8 -26 9 -40 5 -36 13 -90 21 -130 4 -19
7 -38 6 -41 -1 -4 13 -55 29 -115 17 -60 33 -119 36 -131 3 -13 9 -23 13 -23
5 0 6 -8 4 -17 -5 -19 23 -111 81 -268 45 -123 52 -151 26 -104 -50 90 -151
381 -200 574 -37 146 -81 407 -96 563 -39 410 1 905 104 1267 250 883 772
1591 1387 1881 177 84 333 130 499 148 79 8 342 -3 415 -18z m-2219 -153 c-26
-27 -60 -64 -77 -83 -25 -31 -43 -39 -119 -59 -50 -13 -105 -32 -123 -42 -33
-19 -33 -19 -27 1 13 41 57 110 86 135 17 14 74 38 132 56 56 17 107 32 112
34 6 2 22 4 36 4 25 1 24 -1 -20 -46z m-940 -40 c91 -97 89 -83 24 -156 l-58
-64 -58 38 c-32 22 -70 44 -84 49 -14 5 -25 14 -25 20 0 11 139 160 149 160 4
0 27 -21 52 -47z m555 -45 c-15 -18 -38 -56 -51 -83 -20 -41 -32 -53 -62 -64
-52 -18 -241 -110 -340 -165 l-82 -46 -20 29 c-35 49 -28 73 42 134 70 62 88
72 137 81 19 3 78 25 130 47 89 39 244 97 264 98 5 1 -3 -14 -18 -31z m-951 1
c89 -13 114 -25 92 -43 -8 -6 -47 -49 -88 -96 -40 -47 -76 -85 -79 -85 -17 0
-210 68 -210 74 0 4 38 45 85 90 59 58 89 81 102 77 10 -2 54 -10 98 -17z
m2019 -7 c37 -7 64 -32 34 -32 -14 0 -137 -122 -269 -267 -60 -66 -70 -73
-105 -74 -22 0 -50 -2 -64 -5 -14 -2 -54 -8 -90 -14 -148 -24 -380 -95 -492
-151 -32 -15 -58 -26 -58 -23 0 32 261 403 329 468 36 35 127 58 310 81 199
24 334 30 405 17z m2488 -114 c30 -35 66 -79 80 -97 l27 -35 -32 -23 -31 -23
-75 72 c-41 40 -68 64 -61 53 8 -11 38 -44 67 -72 29 -29 53 -58 53 -65 0 -12
-26 9 -127 106 l-63 60 42 43 c23 24 47 43 54 43 6 0 36 -28 66 -62z m-4251
-146 l30 -42 -24 -33 c-13 -17 -38 -57 -57 -88 l-33 -56 -50 53 c-27 29 -67
65 -88 80 l-39 27 17 28 c10 15 43 59 73 98 l55 71 43 -47 c24 -27 57 -67 73
-91z m3349 108 c251 -67 485 -209 651 -395 117 -131 122 -149 13 -45 -60 58
-144 129 -187 158 -143 99 -353 185 -507 209 -80 12 -409 8 -372 -4 6 -3 12
-9 12 -15 0 -6 -6 -8 -14 -5 -8 3 -17 1 -20 -6 -2 -7 -5 -4 -5 6 -1 18 -21 25
-21 7 0 -5 -5 -10 -11 -10 -5 0 -8 4 -4 9 14 23 -194 -48 -310 -106 -173 -87
-307 -186 -465 -343 -81 -80 -167 -172 -192 -205 -367 -488 -570 -1049 -613
-1700 -4 -55 -2 -192 4 -304 21 -367 77 -617 209 -936 121 -292 252 -486 473
-700 162 -157 338 -265 554 -340 55 -19 92 -35 81 -35 -32 0 -226 70 -310 112
-96 48 -200 117 -281 186 -32 28 -62 49 -66 46 -7 -4 -35 25 -32 35 0 3 -3 5
-8 4 -5 -2 -8 1 -6 6 1 5 -32 49 -74 98 -103 119 -167 209 -234 328 -109 193
-205 438 -267 680 -21 85 -27 99 -24 60 4 -55 -8 -37 -19 28 -3 21 -10 35 -15
32 -9 -6 -4 -70 7 -88 9 -15 10 -58 2 -63 -9 -5 -45 152 -65 281 -55 369 -31
816 67 1210 90 362 222 662 427 970 301 451 707 752 1142 846 121 26 360 21
480 -11z m-2511 -37 c-25 -27 -59 -71 -77 -100 -29 -45 -40 -54 -85 -67 -29
-9 -83 -31 -120 -49 -37 -19 -66 -28 -63 -22 33 86 82 185 95 191 45 18 268
93 280 94 7 0 -6 -21 -30 -47z m-1267 -113 c15 -7 29 -19 32 -27 3 -8 2 -12
-3 -9 -17 11 -251 -366 -251 -403 0 -17 -6 -14 -83 32 -40 24 -91 54 -114 67
-24 13 -43 28 -43 33 0 25 170 269 237 339 l35 36 82 -28 c44 -15 93 -33 108
-40z m3688 66 c0 -2 -7 -6 -15 -10 -8 -3 -15 -1 -15 4 0 6 7 10 15 10 8 0 15
-2 15 -4z m-2823 -118 c-19 -35 -37 -75 -41 -90 -5 -21 -26 -37 -108 -81 -57
-29 -145 -82 -197 -115 -51 -34 -98 -62 -105 -62 -19 0 -66 82 -66 115 0 19 8
39 20 50 39 35 145 95 169 95 13 0 74 26 135 57 115 58 218 104 224 98 2 -2
-12 -32 -31 -67z m-675 -123 c29 -38 63 -84 75 -101 l22 -30 -29 -60 c-16 -32
-35 -78 -42 -102 -7 -23 -15 -41 -19 -40 -8 4 -146 157 -169 189 l-20 27 31
58 c48 88 79 136 89 132 4 -2 32 -34 62 -73z m826 -87 c-35 -51 -69 -107 -76
-124 -9 -22 -30 -39 -75 -61 -34 -18 -86 -46 -115 -63 l-54 -32 7 32 c4 18 19
69 34 113 23 70 33 86 64 106 39 26 270 131 275 126 2 -2 -25 -45 -60 -97z
m794 57 c2 -3 -15 -26 -40 -52 -24 -27 -51 -61 -59 -77 -8 -15 -31 -50 -50
-77 -19 -27 -32 -49 -28 -49 3 0 -2 -12 -13 -27 -10 -16 -25 -39 -32 -53 -13
-24 -12 -24 6 -10 10 8 2 -4 -18 -28 -21 -23 -38 -46 -38 -51 0 -5 -19 -12
-42 -16 -24 -4 -50 -9 -59 -11 -83 -17 -539 -183 -567 -206 -7 -6 -14 -9 -16
-7 -5 5 81 214 116 284 14 28 32 70 39 94 16 52 23 57 174 120 238 98 599 194
627 166z m1668 -34 c0 -4 14 -8 31 -9 18 0 37 -6 43 -12 8 -8 -1 -10 -34 -5
-46 6 -199 7 -209 1 -3 -2 -31 -7 -61 -10 -78 -9 -157 -33 -295 -87 -137 -54
-127 -40 20 32 142 68 253 96 393 97 61 1 112 -3 112 -7z m-2830 -204 c-11
-29 -24 -71 -30 -95 -10 -38 -19 -48 -83 -89 -117 -75 -256 -183 -340 -264
-76 -73 -79 -75 -89 -53 -14 31 51 241 84 271 73 66 451 298 469 287 5 -2 -1
-28 -11 -57z m-608 -59 c52 -75 74 -115 68 -123 -5 -6 -27 -55 -48 -109 l-39
-97 -67 69 c-36 38 -77 84 -91 101 -22 31 -23 35 -9 73 17 48 95 198 103 198
3 -1 41 -51 83 -112z m-466 36 c52 -25 113 -64 136 -86 24 -22 37 -36 30 -33
-19 10 -41 -13 -67 -70 -12 -27 -32 -70 -43 -95 -34 -74 -88 -210 -112 -285
-27 -82 -26 -81 -42 -68 -7 6 -70 36 -140 68 -75 34 -128 63 -128 72 0 68 233
543 267 543 3 0 48 -21 99 -46z m1258 -146 c-16 -18 -42 -65 -58 -103 -64
-155 -63 -153 -104 -174 -22 -11 -70 -43 -106 -70 -56 -42 -66 -47 -66 -30 0
36 41 214 55 234 16 26 294 190 304 179 2 -2 -9 -18 -25 -36z m4360 -4 c3 -8
2 -12 -4 -9 -6 3 -10 10 -10 16 0 14 7 11 14 -7z m-1 -71 c20 -29 33 -54 29
-57 -8 -5 -67 79 -79 111 -8 24 5 10 50 -54z m-3706 -34 c8 -8 1 -27 -23 -67
-19 -31 -34 -62 -34 -69 0 -11 -30 -75 -66 -141 -1 -2 -8 -5 -16 -6 -104 -20
-542 -202 -620 -258 -28 -20 -30 -20 -25 -2 3 10 18 62 32 114 14 52 33 117
42 144 l15 49 112 52 c141 67 279 118 431 160 137 39 137 39 152 24z m-1598
-144 c77 -103 88 -122 77 -135 -8 -8 -26 -54 -40 -102 -15 -49 -29 -88 -31
-88 -8 0 -137 139 -167 180 -27 36 -28 43 -19 77 17 62 74 194 82 191 5 -2 49
-57 98 -123z m556 -17 c-8 -29 -20 -80 -27 -113 -13 -60 -13 -60 -123 -149
-60 -49 -146 -120 -189 -157 l-79 -69 -34 47 c-18 25 -33 54 -33 62 0 32 62
201 74 201 6 0 18 -9 26 -20 8 -11 18 -20 23 -20 4 0 63 44 130 98 119 96 225
172 239 172 3 0 0 -24 -7 -52z m225 -166 c0 -5 -9 -17 -19 -26 -17 -15 -61
-135 -75 -207 -4 -17 -33 -46 -95 -92 -49 -37 -103 -81 -120 -98 -17 -17 -31
-27 -31 -22 0 13 29 205 36 236 5 27 92 93 239 185 53 33 65 37 65 24z m-978
-69 c9 -16 50 -70 91 -122 69 -89 73 -96 61 -120 -6 -14 -22 -68 -35 -119
l-23 -93 -58 63 c-32 35 -77 86 -99 115 l-41 52 25 98 c30 115 43 153 55 153
4 0 15 -12 24 -27z m-429 -12 c88 -31 220 -96 241 -119 19 -22 19 -22 -7 -22
-21 0 -28 -7 -41 -42 -27 -77 -48 -162 -52 -212 -2 -27 -11 -87 -20 -133 -16
-81 -17 -83 -38 -70 -22 14 -220 82 -268 92 -24 5 -28 10 -28 39 0 81 62 357
99 440 23 53 32 55 114 27z m5573 -30 c-3 -5 3 -26 13 -47 38 -81 126 -437
152 -618 41 -290 60 -517 54 -636 -24 -496 -157 -968 -370 -1320 -135 -223
-369 -481 -540 -597 -242 -163 -533 -255 -755 -238 -400 30 -772 222 -1044
540 l-51 60 48 -42 c53 -46 193 -121 272 -146 141 -45 249 -42 427 14 468 147
908 726 1072 1409 62 261 80 556 51 838 -23 218 -24 228 -18 215 2 -7 9 -13
14 -13 4 0 6 7 3 15 -12 30 7 14 21 -17 8 -18 14 -26 15 -18 0 13 1 13 10 0 5
-8 7 -23 4 -34 -4 -10 -2 -21 4 -25 34 -21 55 -472 32 -701 -40 -407 -190
-823 -415 -1150 -103 -148 -323 -372 -445 -452 -154 -101 -378 -198 -458 -198
-44 0 -20 -18 56 -41 65 -20 98 -24 207 -24 124 0 135 2 239 38 61 21 135 52
165 69 489 274 856 832 995 1508 37 185 50 328 50 585 0 292 -28 520 -93 754
-11 41 -19 77 -16 79 3 3 1 10 -4 16 -11 13 53 16 65 3 4 -4 0 -7 -9 -7 -14 0
-13 -4 6 -26 12 -14 28 -42 35 -62 45 -123 95 -384 107 -557 9 -113 8 -438 0
-525 -42 -416 -172 -822 -368 -1150 -201 -335 -519 -627 -823 -756 l-59 -25
77 6 c141 11 283 61 416 147 100 65 295 262 394 398 275 380 453 882 498 1405
12 151 13 478 0 610 -15 149 -56 379 -89 491 -39 136 -43 152 -31 159 9 6 14
-14 11 -42 -1 -7 2 -13 7 -13 5 0 15 -19 22 -42 7 -24 21 -70 31 -103 37 -119
60 -230 91 -435 29 -197 32 -693 5 -865 -78 -490 -263 -957 -510 -1284 -61
-81 -17 -44 63 54 238 291 404 693 491 1190 26 146 37 600 20 795 -22 250 -81
547 -147 742 -30 89 -31 97 -13 87 11 -5 17 -14 15 -18z m-2091 -206 c122
-245 173 -451 195 -783 35 -508 -102 -1018 -362 -1359 -22 -29 -44 -53 -48
-53 -11 0 -73 123 -115 229 -163 418 -207 947 -115 1401 56 276 180 583 298
739 l26 33 23 -28 c13 -16 57 -96 98 -179z m1999 170 c3 -8 1 -15 -4 -15 -6 0
-10 7 -10 15 0 8 2 15 4 15 2 0 6 -7 10 -15z m-3389 -16 c27 -1 25 -2 -17 -17
l-47 -15 -32 -91 c-47 -131 -54 -143 -91 -151 -86 -18 -495 -202 -541 -243 -9
-8 -20 -12 -24 -9 -5 5 44 270 50 273 1 0 36 19 77 41 135 73 427 191 535 216
11 3 29 3 40 1 11 -2 34 -4 50 -5z m3205 -49 c8 -5 11 -10 5 -10 -5 0 -17 5
-25 10 -8 5 -10 10 -5 10 6 0 17 -5 25 -10z m0 -24 c0 -11 -19 -15 -25 -6 -3
5 1 10 9 10 9 0 16 -2 16 -4z m-4275 -43 c-3 -10 -14 -62 -22 -116 l-17 -98
-65 -52 c-36 -28 -96 -78 -134 -109 -37 -32 -72 -58 -77 -58 -14 0 -89 98 -96
126 -6 23 39 158 56 169 5 3 22 -6 38 -20 34 -28 57 -32 69 -11 4 8 49 45 98
83 146 110 164 120 150 86z m5183 -48 c57 -18 64 -27 76 -100 l7 -40 -20 31
c-27 43 -39 49 -34 16 4 -25 3 -25 -11 6 -8 17 -17 32 -19 32 -2 0 -3 -24 -1
-52 l3 -53 -9 53 c-6 40 -16 62 -39 84 -32 31 -41 54 -18 44 6 -2 36 -12 65
-21z m-31 -97 c-3 -8 -6 -5 -6 6 -1 11 2 17 5 13 3 -3 4 -12 1 -19z m-5772
-98 c28 -35 71 -88 97 -119 28 -32 44 -60 39 -66 -5 -5 -14 -46 -20 -89 -6
-44 -14 -82 -16 -85 -3 -2 -57 48 -120 113 -76 78 -115 125 -115 139 0 30 30
199 37 211 6 9 11 5 98 -104z m5832 48 c-3 -8 -6 -5 -6 6 -1 11 2 17 5 13 3
-3 4 -12 1 -19z m-4947 8 c0 -3 -11 -17 -24 -31 -18 -19 -31 -55 -47 -123 -11
-54 -24 -110 -28 -127 -5 -24 -27 -44 -102 -95 -119 -81 -333 -243 -377 -284
l-33 -31 -60 62 c-71 74 -75 97 -21 140 115 92 510 385 587 435 84 54 105 65
105 54z m4487 -58 c-3 -8 -6 -5 -6 6 -1 11 2 17 5 13 3 -3 4 -12 1 -19z m10
-70 c-3 -8 -6 -5 -6 6 -1 11 2 17 5 13 3 -3 4 -12 1 -19z m-3787 -36 c0 -5
-19 -12 -42 -18 -40 -8 -43 -12 -61 -64 -22 -65 -31 -118 -52 -310 -9 -85 -15
-108 -32 -122 -13 -10 -17 -10 -21 0 -2 8 -13 5 -34 -13 -16 -14 -36 -25 -45
-25 -14 0 -14 2 0 23 57 80 87 127 87 137 0 6 -27 -29 -61 -79 -54 -80 -103
-130 -115 -118 -4 4 43 86 82 142 28 40 36 55 31 55 -3 0 -37 -48 -77 -107
-77 -114 -97 -134 -111 -112 -6 10 -9 10 -9 2 0 -7 -16 -24 -36 -39 -29 -23
-37 -25 -45 -13 -5 8 -9 9 -9 3 0 -18 -41 -56 -56 -50 -7 3 -16 -3 -19 -14 -3
-10 -13 -21 -22 -24 -25 -10 -10 52 40 165 25 54 44 99 42 99 -18 0 -105 -204
-105 -245 0 -14 -6 -36 -12 -48 -12 -20 -13 -18 -19 28 l-6 50 -2 -50 c-1 -27
-9 -61 -17 -75 -14 -23 -15 -12 -10 125 8 230 33 447 54 463 41 31 346 176
437 207 78 27 116 35 173 35 39 0 72 -4 72 -8z m3804 -48 c3 -8 2 -12 -4 -9
-6 3 -10 10 -10 16 0 14 7 11 14 -7z m-5878 -78 c106 -32 161 -54 209 -85 l40
-26 -32 -3 c-21 -2 -37 -11 -44 -24 -15 -27 -31 -215 -30 -348 0 -109 -4 -140
-20 -140 -5 0 -9 8 -9 18 0 13 -2 14 -9 3 -5 -7 -13 -11 -19 -7 -7 4 -3 25 13
59 25 57 46 145 23 97 -7 -14 -25 -54 -40 -89 -20 -44 -32 -61 -39 -54 -7 7 4
52 35 139 64 185 59 172 47 152 -6 -9 -32 -72 -57 -140 -49 -130 -56 -144 -73
-134 -6 4 -3 25 9 59 32 92 32 94 16 67 -8 -14 -23 -46 -31 -72 -10 -27 -23
-48 -31 -48 -20 0 -17 30 11 107 13 37 22 69 20 71 -2 2 -18 -35 -36 -82 -30
-81 -48 -101 -65 -75 -4 7 -20 9 -40 6 -32 -5 -34 -4 -40 31 -8 42 2 347 15
445 5 37 15 74 21 82 18 21 65 18 156 -9z m6423 -85 c9 -15 10 -21 2 -21 -25
0 -131 65 -131 81 0 14 115 -40 129 -60z m-5969 -87 c64 -78 108 -139 102
-143 -11 -6 -30 -104 -34 -176 l-3 -40 -93 90 c-129 124 -131 128 -121 245 11
125 19 171 29 165 5 -3 59 -67 120 -141z m800 -49 c0 -3 -9 -18 -20 -33 -14
-19 -22 -55 -29 -126 -6 -54 -11 -99 -13 -100 -10 -6 -177 -154 -195 -173
l-23 -24 0 120 c0 65 3 126 6 135 7 18 118 109 202 166 55 38 72 46 72 35z
m-550 -267 c80 -61 78 -61 128 -17 62 54 74 52 68 -13 -15 -158 -19 -178 -32
-178 -8 0 -15 -7 -15 -15 -3 -35 -6 -40 -18 -37 -7 1 -10 -1 -7 -6 3 -5 -6
-20 -20 -33 l-26 -24 -19 24 c-10 13 -19 28 -19 35 0 6 25 53 55 105 31 52 54
95 52 97 -2 2 -29 -40 -62 -94 -32 -53 -60 -99 -62 -102 -2 -2 -26 18 -53 45
-46 47 -49 54 -50 101 0 77 11 144 25 144 7 0 31 -15 55 -32z m-319 -85 c72
-97 100 -132 84 -104 -5 10 -4 12 4 7 6 -4 9 -12 6 -17 -4 -5 6 -25 21 -44 16
-21 26 -47 25 -63 -6 -111 -14 -172 -23 -172 -6 0 -8 -7 -4 -15 11 -30 -12
-14 -103 73 l-93 87 -6 136 c-4 120 1 209 13 209 2 0 36 -44 76 -97z m1629 -1
c0 -5 -18 -17 -40 -27 -22 -10 -45 -24 -51 -31 -5 -7 -13 -47 -15 -89 -5 -70
-9 -81 -47 -136 -23 -32 -60 -90 -82 -128 -47 -82 -127 -212 -172 -278 -17
-27 -54 -94 -82 -150 -29 -57 -56 -103 -62 -103 -5 0 -3 12 4 28 8 15 33 65
55 112 22 47 72 137 111 200 38 63 98 165 132 225 35 61 65 112 69 115 10 9
36 54 43 75 11 30 -22 -12 -91 -117 -206 -315 -314 -510 -338 -608 l-14 -55 5
47 c6 64 54 185 114 288 27 47 82 143 123 213 40 70 85 144 101 164 15 20 27
41 27 47 0 18 -66 -56 -88 -100 -11 -21 -41 -70 -66 -107 -25 -38 -46 -71 -46
-73 0 -3 -32 -57 -70 -121 -39 -64 -78 -142 -87 -172 -20 -66 -33 -85 -33 -49
0 54 88 233 225 458 88 144 111 187 89 168 -10 -9 -35 -43 -54 -75 -19 -32
-50 -80 -70 -108 -19 -27 -48 -75 -64 -105 -16 -30 -45 -81 -64 -114 -19 -32
-43 -83 -52 -114 -9 -30 -20 -50 -24 -44 -8 14 28 126 56 172 11 19 44 80 72
135 29 55 85 150 125 210 41 61 62 99 47 86 -37 -35 -148 -204 -213 -327 -53
-101 -81 -132 -67 -77 16 61 152 304 218 388 17 21 26 36 19 32 -15 -10 -120
-148 -160 -212 -17 -27 -48 -86 -68 -129 -31 -65 -35 -83 -26 -98 14 -22 3
-134 -11 -120 -5 5 -16 81 -23 168 l-13 159 27 20 c48 36 166 159 197 205 23
35 42 50 86 67 80 32 217 69 341 92 4 0 7 -3 7 -7z m2040 -47 c-7 -8 -20 -14
-29 -14 -13 1 -13 2 2 6 9 2 17 9 17 14 0 5 5 9 11 9 8 0 8 -5 -1 -15z m-10
-27 c38 2 -17 -354 -87 -573 -90 -280 -249 -551 -417 -715 -47 -45 -58 -52
-67 -40 -5 8 -19 30 -30 48 l-21 33 26 32 c171 210 261 369 341 597 62 179
125 474 125 586 0 21 4 33 10 29 6 -4 8 -10 6 -14 -9 -15 33 -9 46 7 11 14 11
15 -5 9 -11 -4 -16 -3 -12 4 4 6 19 7 38 3 18 -4 39 -7 47 -6z m-2826 -42
c-12 -19 -18 -58 -23 -140 -6 -111 -7 -115 -36 -140 -16 -14 -39 -33 -50 -43
-11 -10 -23 -17 -27 -16 -4 2 -10 -6 -13 -17 -3 -10 -19 -25 -35 -32 -17 -7
-29 -17 -29 -23 1 -5 0 -19 -1 -30 -4 -28 -17 97 -19 176 -1 57 3 71 29 111
30 46 102 112 174 160 47 32 54 30 30 -6z m-1203 -50 c124 -34 219 -70 219
-82 0 -3 -11 -15 -25 -26 -14 -11 -25 -23 -25 -28 0 -5 -26 -64 -59 -132 -32
-68 -64 -147 -72 -175 -13 -53 -29 -71 -29 -32 0 42 34 136 87 243 30 59 52
110 50 113 -6 5 -69 -101 -109 -182 -14 -27 -36 -84 -49 -125 -22 -70 -24 -73
-28 -40 l-4 35 -6 -29 c-3 -16 -12 -31 -20 -34 -10 -3 -12 2 -8 19 15 65 19
93 12 87 -4 -4 -13 -31 -20 -60 -15 -67 -39 -77 -54 -21 -21 81 -43 244 -48
364 -5 119 -5 127 13 132 36 9 51 7 175 -27z m863 19 c-4 -8 -8 -15 -10 -15
-2 0 -4 7 -4 15 0 8 4 15 10 15 5 0 7 -7 4 -15z m5514 -49 c45 -31 49 -36 28
-36 -7 0 -33 18 -57 41 -47 43 -40 42 29 -5z m-5651 -122 c40 -41 73 -79 73
-84 0 -8 -16 -17 -33 -18 -14 -1 -50 -52 -78 -111 l-27 -56 -1 38 c-1 21 3 36
8 33 4 -3 16 19 26 49 9 30 19 55 22 55 3 0 2 -8 -1 -17 -5 -15 -4 -15 9 1 19
24 19 42 2 49 -18 7 -87 -110 -87 -146 0 -15 -4 -27 -10 -27 -5 0 -10 16 -10
35 0 19 3 35 8 35 11 0 42 62 52 103 15 67 -7 48 -31 -26 l-23 -72 -9 45 c-12
66 5 190 26 190 5 0 43 -34 84 -76z m1135 -133 c-26 -52 -61 -113 -77 -135
-17 -23 -46 -66 -64 -96 -38 -64 -80 -115 -88 -107 -3 3 6 21 20 39 14 18 35
53 47 78 13 25 43 74 67 109 53 78 117 205 111 222 -2 7 -34 -39 -71 -102 -37
-63 -76 -125 -86 -139 -10 -14 -50 -79 -89 -145 -84 -141 -101 -167 -102 -145
0 9 28 63 63 122 34 58 69 119 78 134 68 118 151 253 168 275 11 14 28 43 38
64 l18 38 7 -59 c7 -57 6 -63 -40 -153z m-975 91 c-13 -20 -50 -64 -81 -96
-31 -33 -67 -81 -80 -108 -13 -27 -26 -43 -29 -36 -4 12 28 87 42 98 3 3 12
17 20 32 21 41 145 172 149 159 2 -7 -7 -29 -21 -49z m-727 -172 c-13 -78 -33
-130 -51 -130 -6 0 -8 7 -5 16 15 39 56 217 52 222 -7 6 -18 -22 -51 -135 -26
-85 -39 -112 -49 -102 -8 8 51 190 81 249 l28 55 3 -50 c2 -27 -2 -84 -8 -125z
m1741 67 c-22 -64 -48 -116 -68 -137 -8 -8 -20 -24 -28 -35 -7 -11 -17 -17
-21 -13 -4 4 5 24 20 43 15 20 41 66 58 103 46 103 68 125 39 39z m-1478 -53
c85 -83 100 -102 75 -89 -7 4 -6 1 2 -7 8 -7 21 -24 28 -38 7 -14 19 -36 27
-50 8 -14 15 -38 15 -55 l0 -30 -34 39 c-19 21 -39 35 -45 31 -6 -3 -20 -24
-31 -46 -11 -21 -22 -39 -25 -39 -6 0 10 39 31 77 l19 32 -26 27 c-15 15 -31
24 -37 20 -5 -3 -15 -27 -22 -53 -7 -27 -14 -42 -17 -36 -3 7 3 36 12 64 l17
51 -32 32 c-18 17 -29 25 -25 17 5 -8 10 -44 11 -80 3 -65 3 -65 -21 44 -25
113 -31 175 -17 175 4 0 47 -39 95 -86z m396 9 c-55 -102 -70 -126 -75 -120
-8 8 101 197 113 197 2 0 -15 -35 -38 -77z m33 -24 c-16 -35 -37 -73 -47 -84
-9 -11 -14 -15 -12 -10 51 113 79 166 83 162 3 -3 -8 -33 -24 -68z m1068 8 c0
-7 -7 -22 -15 -33 -13 -17 -13 -16 -3 14 13 34 18 40 18 19z m-681 -49 c-26
-38 -44 -57 -114 -116 -27 -24 -62 -61 -77 -84 -20 -29 -29 -36 -33 -26 -8 20
47 100 104 154 55 51 135 113 140 108 2 -1 -7 -18 -20 -36z m-1069 -65 c-11
-17 -11 -17 -6 0 3 10 6 24 7 30 0 9 2 9 5 0 3 -7 0 -20 -6 -30z m1030 -38
c-13 -14 -26 -23 -28 -20 -7 7 29 45 41 45 6 0 0 -11 -13 -25z m561 -8 c-10
-9 -11 -8 -5 6 3 10 9 15 12 12 3 -3 0 -11 -7 -18z m308 -19 c0 -17 -17 -34
-62 -62 -120 -76 -338 -264 -427 -367 -48 -56 -60 -76 -60 -104 0 -49 -15 -43
-29 10 l-11 46 84 97 c133 153 304 299 420 358 45 23 82 42 84 43 1 1 2 -9 1
-21z m-930 -15 c-13 -16 -36 -41 -51 -57 -15 -15 -26 -32 -23 -36 2 -4 -2 -16
-10 -26 -15 -18 -15 -18 -8 1 6 18 5 19 -13 5 -18 -14 -18 -14 1 10 26 34 118
130 124 130 2 0 -6 -12 -20 -27z m-706 -8 c-3 -9 -8 -14 -10 -11 -3 3 -2 9 2
15 9 16 15 13 8 -4z m778 -2 c-5 -10 -21 -29 -37 -43 -28 -26 -24 -14 11 33
22 30 41 36 26 10z m-272 -69 c-12 -20 -38 -55 -58 -79 -20 -23 -41 -50 -47
-60 -9 -16 -15 -14 -58 28 -50 49 -66 57 -66 33 0 -8 -4 -18 -10 -21 -6 -4
-10 17 -10 54 0 71 12 77 57 33 15 -16 43 -37 61 -48 l34 -19 19 25 c67 84 93
112 97 102 2 -7 -6 -28 -19 -48z m-437 -6 c-7 -7 -12 -8 -12 -2 0 6 3 14 7 17
3 4 9 5 12 2 2 -3 -1 -11 -7 -17z m610 -26 c-6 -5 -25 -32 -42 -62 -31 -57
-42 -63 -14 -7 25 49 55 89 62 82 4 -3 1 -9 -6 -13z m-797 -18 c20 -8 7 -39
-30 -72 -20 -18 -45 -61 -65 -109 -18 -43 -45 -103 -61 -133 -16 -30 -35 -73
-43 -95 -8 -22 -15 -32 -15 -21 -1 10 15 55 35 100 36 79 50 111 92 208 13 31
17 50 10 54 -15 9 -21 -1 -67 -111 -65 -153 -65 -155 -73 -155 -11 0 50 168
78 216 27 45 24 54 -17 54 -23 0 -30 -5 -34 -27 -18 -84 -26 -114 -48 -172
-34 -91 -41 -62 -8 34 33 94 45 168 28 162 -7 -2 -15 -21 -18 -43 -3 -21 -16
-72 -29 -112 l-24 -73 27 -77 c27 -77 33 -112 20 -112 -17 0 -125 293 -153
414 -21 88 -18 90 203 81 99 -3 185 -9 192 -11z m1611 -31 c-8 -15 -15 -22
-16 -15 0 14 22 53 28 47 2 -2 -3 -16 -12 -32z m-635 -76 c-10 -32 -22 -58
-27 -59 -5 0 -8 -4 -6 -10 1 -5 -2 -7 -7 -4 -17 11 -89 -80 -96 -121 -11 -62
-13 -61 -14 2 -1 53 3 65 32 100 53 68 130 155 133 152 2 -2 -5 -29 -15 -60z
m549 39 c0 -3 -6 -11 -13 -18 -7 -7 -22 -26 -35 -42 -12 -16 -22 -24 -22 -18
0 6 14 27 31 47 29 33 39 41 39 31z m-1684 -42 c-4 -9 -9 -15 -11 -12 -3 3 -3
13 1 22 4 9 9 15 11 12 3 -3 3 -13 -1 -22z m631 -16 c-3 -8 -6 -5 -6 6 -1 11
2 17 5 13 3 -3 4 -12 1 -19z m-509 -32 c-3 -24 -29 -92 -57 -151 -56 -115 -82
-141 -31 -31 16 37 30 71 30 76 0 6 4 10 8 10 5 0 16 32 26 70 21 80 31 91 24
26z m1689 22 c-3 -8 -6 -5 -6 6 -1 11 2 17 5 13 3 -3 4 -12 1 -19z m-1447 -74
c97 -78 186 -177 174 -195 -3 -5 0 -17 5 -27 6 -11 8 -22 4 -25 -6 -7 -71 37
-122 83 -19 17 -40 29 -47 26 -8 -3 -11 0 -8 8 3 7 -13 27 -34 45 -37 29 -62
84 -62 131 0 13 48 -12 90 -46z m1150 -30 c-18 -21 -24 -10 -8 15 7 12 14 17
16 11 2 -6 -2 -17 -8 -26z m-1390 -64 c-16 -40 -23 -33 -9 9 6 18 14 30 17 27
2 -3 -1 -19 -8 -36z m25 -31 c-8 -19 -13 -25 -9 -14 3 11 8 34 12 50 3 17 8
23 10 14 1 -9 -4 -32 -13 -50z m734 -86 c-55 -88 -74 -107 -95 -99 -10 4 -21
1 -26 -6 -6 -10 -8 -9 -8 4 0 10 -24 30 -60 50 -51 28 -60 37 -60 60 0 16 4
28 8 28 4 0 44 -22 87 -49 49 -30 82 -45 84 -38 2 7 27 45 55 86 41 58 52 69
54 52 2 -12 -14 -50 -39 -88z m1132 57 c-127 -89 -488 -430 -498 -469 l-6 -26
-13 30 c-7 17 -13 36 -14 42 0 17 180 197 307 306 114 99 236 173 242 148 2
-9 -6 -22 -18 -31z m-434 18 c-3 -8 -6 -5 -6 6 -1 11 2 17 5 13 3 -3 4 -12 1
-19z m-1494 -33 c-9 -19 -18 -33 -21 -31 -4 5 26 66 33 66 3 0 -3 -16 -12 -35z
m38 -22 c-12 -20 -14 -14 -5 12 4 9 9 14 11 11 3 -2 0 -13 -6 -23z m1149 -110
c0 -14 -37 -68 -65 -96 -47 -46 -75 -89 -76 -116 l-1 -26 -10 28 c-16 44 -1
75 69 149 62 63 83 79 83 61z m-932 -113 c2 -19 -5 -29 -27 -42 -16 -9 -32
-13 -36 -10 -6 7 -69 4 -97 -4 -9 -3 -24 -27 -34 -57 -9 -29 -20 -56 -25 -61
-9 -10 1 29 20 77 16 42 14 50 -11 43 -13 -4 -39 -9 -58 -12 -18 -2 -36 -7
-38 -9 -8 -8 29 -97 80 -195 50 -94 75 -155 58 -145 -14 8 -99 161 -157 280
-46 96 -51 111 -37 122 23 17 214 41 309 39 46 -1 50 -3 53 -26z m247 -112
c55 -28 115 -78 115 -96 0 -9 -6 -12 -15 -8 -10 4 -7 -6 10 -31 13 -20 23 -39
20 -41 -2 -3 -54 28 -114 67 -61 39 -114 71 -119 71 -9 0 -42 64 -42 80 0 11
92 -16 145 -42z m-504 -11 c-8 -8 -11 -3 -11 19 1 25 2 27 11 11 8 -14 8 -22
0 -30z m950 -70 c-43 -88 -63 -109 -98 -101 -15 4 -39 12 -53 19 -42 21 -73
28 -66 16 4 -6 4 -11 1 -11 -9 0 -37 71 -30 78 3 3 11 0 17 -6 7 -7 19 -12 28
-12 8 0 42 -11 75 -24 l59 -25 14 32 c7 18 27 56 45 85 26 43 33 50 35 32 2
-11 -10 -49 -27 -83z m1179 24 c0 -9 -93 -101 -215 -212 -155 -141 -256 -245
-262 -268 l-6 -24 -13 24 c-7 13 -13 31 -14 39 0 23 351 365 422 411 60 38 88
48 88 30z m-750 -209 c0 -12 -19 -27 -56 -45 -40 -20 -59 -36 -69 -60 l-14
-32 -1 31 c0 40 15 58 80 94 65 35 60 34 60 12z m916 -103 c6 -11 -82 -109
-98 -109 -5 0 -12 8 -15 17 -5 12 8 29 43 60 53 46 59 49 70 32z m-1619 -29
c50 -17 113 -55 113 -67 0 -3 -7 0 -15 7 -10 8 -15 9 -15 2 0 -6 8 -16 18 -21
9 -6 13 -11 9 -11 -5 0 1 -13 13 -29 l21 -30 -75 35 c-139 64 -186 96 -186
125 0 22 30 19 117 -11z m471 -27 c-17 -47 -44 -97 -75 -142 -2 -2 -35 8 -74
24 -80 31 -130 68 -114 84 12 12 130 -32 163 -62 13 -12 23 -16 23 -9 3 22 5
27 44 95 22 37 43 67 47 67 4 0 -2 -26 -14 -57z m3871 -10 c-195 -253 -390
-403 -651 -497 -296 -107 -618 -85 -962 68 -89 39 -63 40 46 1 155 -55 298
-79 478 -80 172 0 259 14 415 67 217 73 409 196 610 390 71 68 89 83 64 51z
m-219 -125 c-136 -130 -310 -236 -481 -291 -150 -49 -230 -60 -404 -54 -139 4
-174 9 -265 35 -104 30 -285 101 -277 108 2 2 55 -9 118 -25 176 -46 258 -54
463 -48 256 8 400 45 621 161 108 56 264 160 280 186 3 5 12 10 18 10 7 -1
-26 -37 -73 -82z m-4250 33 c16 -32 12 -41 -20 -41 -16 0 -30 -3 -30 -8 0 -4
-48 -6 -106 -4 l-107 4 33 -59 c32 -57 40 -67 97 -129 33 -37 96 -124 89 -124
-12 0 -286 352 -286 368 0 9 45 12 160 12 147 0 160 -1 170 -19z m1846 -130
c-23 -60 -33 -72 -87 -110 -74 -52 -367 -203 -380 -195 -11 7 -12 44 -1 44 14
0 232 123 298 167 33 23 89 74 124 113 35 40 66 67 68 60 3 -7 -7 -42 -22 -79z
m-786 -70 c0 -11 3 -26 6 -35 5 -14 -6 -16 -80 -16 -77 0 -86 2 -86 19 0 34
24 43 133 49 21 2 27 -3 27 -17z m-769 -18 c16 -3 27 -9 24 -13 -3 -4 2 -11
11 -14 8 -3 12 -2 9 4 -9 15 -2 13 61 -15 32 -14 55 -28 51 -31 -3 -3 -20 2
-39 12 -32 16 -32 16 -18 -1 8 -10 35 -31 60 -46 62 -39 29 -36 -66 6 -125 56
-143 66 -160 93 -16 25 -16 25 11 18 15 -4 40 -10 56 -13z m509 -75 c-44 -121
-56 -127 -160 -75 -46 23 -66 38 -68 54 l-3 22 40 -20 c22 -10 47 -19 55 -19
8 0 17 -4 21 -10 3 -5 12 -7 20 -4 9 4 18 -3 24 -17 9 -23 9 -23 16 -4 20 53
67 146 72 141 3 -3 -4 -34 -17 -68z m1732 -129 c253 -182 551 -284 863 -296
148 -6 264 7 427 48 95 24 106 23 46 -1 -162 -66 -480 -85 -695 -42 -192 38
-420 128 -562 220 -95 61 -220 156 -221 166 0 5 8 2 19 -5 10 -8 66 -48 123
-90z m-417 61 c2 -3 -16 -26 -40 -50 l-44 -43 -43 28 c-37 25 -40 30 -23 35
11 3 40 15 63 27 41 19 76 21 87 3z m-845 -96 c6 -14 10 -27 10 -29 0 -1 -27
4 -60 12 -77 20 -82 43 -10 43 45 0 52 -3 60 -26z m1060 -161 c36 -29 90 -65
120 -80 30 -16 57 -29 60 -31 6 -4 -73 -71 -85 -72 -22 0 -113 49 -169 92
l-59 45 -36 -24 c-63 -44 -269 -141 -345 -164 -63 -19 -42 5 41 45 189 92 264
148 335 248 l41 58 16 -32 c9 -18 45 -56 81 -85z m-1740 33 c38 -8 140 -50
140 -57 0 -3 -43 4 -96 15 -69 15 -98 26 -106 40 -9 17 -8 18 13 13 13 -3 35
-8 49 -11z m301 -63 c27 -10 49 -21 49 -25 0 -8 -17 -2 -80 26 -47 21 -29 20
31 -1z m-591 -18 c7 -8 27 -17 46 -21 46 -8 52 -21 9 -19 -36 2 -85 28 -85 45
0 15 16 12 30 -5z m1184 -46 c5 -5 8 -11 5 -13 -7 -7 -109 16 -109 24 0 11 92
1 104 -11z m1189 -107 c23 -16 63 -37 89 -48 l47 -20 -54 -54 -55 -54 -54 26
-53 26 -97 -48 c-87 -44 -266 -111 -291 -109 -6 0 19 12 55 27 153 63 255 136
326 234 20 26 38 48 41 48 2 0 23 -13 46 -28z m296 -110 l54 -18 -102 -77
c-97 -73 -161 -114 -161 -102 0 3 19 29 43 58 23 29 58 76 77 104 19 29 35 52
35 52 0 0 24 -8 54 -17z m571 -21 c0 -17 -28 -31 -80 -41 -29 -5 -54 -10 -56
-10 -2 0 -18 -24 -35 -52 -33 -57 -33 -55 1 39 l22 62 57 4 c31 2 64 4 74 5 9
1 17 -2 17 -7z m-282 -17 c63 -10 32 -39 -53 -49 -58 -7 -63 -10 -141 -86 -45
-44 -85 -79 -90 -79 -4 0 4 12 18 28 34 36 114 155 123 182 7 21 26 22 143 4z"/>
<path d="M7350 7906 c0 -2 8 -10 18 -17 15 -13 16 -12 3 4 -13 16 -21 21 -21
13z"/>
<path d="M7240 7876 c0 -2 8 -10 18 -17 15 -13 16 -12 3 4 -13 16 -21 21 -21
13z"/>
<path d="M7281 7848 c2 -2 18 -14 34 -28 l30 -25 -24 28 c-14 15 -29 27 -34
27 -6 0 -8 -1 -6 -2z"/>
<path d="M7846 7239 c26 -33 51 -62 56 -65 17 -11 -8 33 -37 64 -16 19 -34 40
-38 48 -4 8 -13 14 -18 14 -6 0 11 -27 37 -61z"/>
<path d="M7925 7253 c34 -53 45 -67 45 -60 0 10 -51 87 -57 87 -3 0 3 -12 12
-27z"/>
<path d="M7660 7585 c19 -19 36 -35 39 -35 3 0 -10 16 -29 35 -19 19 -36 35
-39 35 -3 0 10 -16 29 -35z"/>
<path d="M4672 4520 c0 -14 2 -19 5 -12 2 6 2 18 0 25 -3 6 -5 1 -5 -13z"/>
<path d="M2292 5885 c-17 -37 -14 -45 4 -12 9 16 14 31 11 33 -2 2 -9 -7 -15
-21z"/>
<path d="M2216 5831 c-4 -7 -5 -15 -2 -18 9 -9 19 4 14 18 -4 11 -6 11 -12 0z"/>
<path d="M3970 5510 c-6 -11 -8 -20 -6 -20 3 0 10 9 16 20 6 11 8 20 6 20 -3
0 -10 -9 -16 -20z"/>
<path d="M3725 5312 c-33 -59 -61 -116 -63 -127 -2 -11 7 0 21 25 13 25 43 78
66 119 23 41 40 78 39 82 -2 4 -30 -40 -63 -99z"/>
<path d="M3810 5350 c-6 -11 -8 -20 -6 -20 3 0 10 9 16 20 6 11 8 20 6 20 -3
0 -10 -9 -16 -20z"/>
<path d="M3566 5345 c-9 -26 -7 -32 5 -12 6 10 9 21 6 23 -2 3 -7 -2 -11 -11z"/>
<path d="M3667 5313 c-63 -113 -78 -143 -74 -143 6 0 67 103 79 132 7 18 3 25
-5 11z"/>
<path d="M3765 5280 c-9 -16 -13 -30 -11 -30 3 0 12 14 21 30 9 17 13 30 11
30 -3 0 -12 -13 -21 -30z"/>
<path d="M3526 5275 c-9 -26 -7 -32 5 -12 6 10 9 21 6 23 -2 3 -7 -2 -11 -11z"/>
<path d="M3506 5225 c-9 -26 -7 -32 5 -12 6 10 9 21 6 23 -2 3 -7 -2 -11 -11z"/>
<path d="M3491 5164 c0 -11 3 -14 6 -6 3 7 2 16 -1 19 -3 4 -6 -2 -5 -13z"/>
<path d="M2198 5402 c-22 -60 -15 -67 7 -7 10 25 16 47 14 50 -3 2 -12 -17
-21 -43z"/>
<path d="M2066 5345 c-9 -26 -7 -32 5 -12 6 10 9 21 6 23 -2 3 -7 -2 -11 -11z"/>
<path d="M2166 5325 c-9 -26 -7 -32 5 -12 6 10 9 21 6 23 -2 3 -7 -2 -11 -11z"/>
<path d="M2027 5244 c-36 -93 -34 -107 3 -19 17 38 29 74 27 79 -2 5 -15 -23
-30 -60z"/>
<path d="M3963 4990 c-31 -38 -29 -50 2 -14 14 16 25 32 25 37 0 11 -3 8 -27
-23z"/>
<path d="M3886 4973 c-6 -14 -5 -15 5 -6 7 7 10 15 7 18 -3 3 -9 -2 -12 -12z"/>
<path d="M3536 4722 c-10 -11 -20 -40 -22 -64 l-5 -43 14 38 c8 20 20 44 27
52 19 23 7 39 -14 17z"/>
<path d="M6100 5030 c-8 -5 -11 -12 -8 -16 4 -3 14 1 23 10 18 17 9 21 -15 6z"/>
<path d="M2006 4864 c-4 -20 -5 -38 -2 -41 2 -3 8 11 12 31 3 21 4 39 1 42 -2
3 -8 -11 -11 -32z"/>
<path d="M2065 4888 c-29 -82 -55 -179 -54 -203 0 -18 12 12 30 75 17 58 33
113 36 123 6 19 -5 24 -12 5z"/>
<path d="M2092 4822 c-29 -92 -35 -118 -29 -112 12 11 64 171 57 175 -4 2 -16
-26 -28 -63z"/>
<path d="M2131 4798 c-19 -46 -45 -98 -59 -117 -14 -19 -31 -59 -38 -90 -15
-61 -11 -79 7 -35 16 42 32 78 77 174 36 76 60 150 50 150 -2 0 -19 -37 -37
-82z"/>
<path d="M2158 4743 c-32 -69 -58 -139 -61 -168 l-7 -50 18 60 c10 33 41 104
70 159 52 99 59 116 44 116 -5 0 -33 -53 -64 -117z"/>
<path d="M2766 4788 c-7 -28 -8 -83 -1 -76 9 9 23 98 15 98 -4 0 -10 -10 -14
-22z"/>
<path d="M2100 4183 c0 -22 2 -25 10 -13 13 20 13 40 0 40 -5 0 -10 -12 -10
-27z"/>
<path d="M2135 4200 c-12 -19 -10 -159 2 -171 7 -7 17 11 30 53 30 92 37 128
23 128 -6 0 -12 -6 -14 -12 -14 -48 -39 -108 -43 -104 -3 3 0 25 7 50 13 48
10 81 -5 56z"/>
<path d="M2790 3896 c0 -2 8 -10 18 -17 15 -13 16 -12 3 4 -13 16 -21 21 -21
13z"/>
<path d="M5700 1175 c0 -8 2 -15 4 -15 2 0 6 7 10 15 3 8 1 15 -4 15 -6 0 -10
-7 -10 -15z"/>
<path d="M5628 1153 c7 -3 16 -2 19 1 4 3 -2 6 -13 5 -11 0 -14 -3 -6 -6z"/>
</g>
</svg>
